<?xml version="1.0" encoding="UTF-8" standalone="no"?>
<!DOCTYPE svg PUBLIC "-//W3C//DTD SVG 1.1//EN" "http://www.w3.org/Graphics/SVG/1.1/DTD/svg11.dtd">
<svg width="100%" height="100%" viewBox="0 0 512 512" version="1.1" xmlns="http://www.w3.org/2000/svg" xmlns:xlink="http://www.w3.org/1999/xlink" xml:space="preserve" xmlns:serif="http://www.serif.com/" style="fill-rule:evenodd;clip-rule:evenodd;stroke-linejoin:round;stroke-miterlimit:1.41421;">
    <g id="Layer-1" serif:id="Layer 1" transform="matrix(3.29648,0,0,3.10304,-2.3794,-0.000930912)">
        <g transform="matrix(1,0,0,1,77.7862,38.0693)">
            <path d="M0,-38.069L-38.236,-19.181L0.594,0L39.423,-19.181L1.188,-38.069L0,-38.069Z" style="fill:rgb(84,151,162);fill-rule:nonzero;"/>
        </g>
        <g transform="matrix(0.896573,0.442895,0.442895,-0.896573,33.869,62.4001)">
            <path d="M9.698,-6.803L53.006,-6.803L29.121,41.548L-14.177,41.528L9.698,-6.803Z" style="fill:rgb(91,164,174);fill-rule:nonzero;"/>
        </g>
        <g transform="matrix(-0.896573,0.442895,0.442895,0.896573,72.6982,48.4637)">
            <path d="M-29.131,41.528L14.177,41.528L-9.708,-6.823L-53.006,-6.803L-29.131,41.528Z" style="fill:rgb(60,122,132);fill-rule:nonzero;"/>
        </g>
        <g transform="matrix(0.896564,0.442914,0.442914,-0.896564,4.73789,74.7545)">
            <path d="M4.017,-17.198L47.325,-17.198L73.642,17.198L30.333,17.199L4.017,-17.198Z" style="fill:rgb(201,51,77);fill-rule:nonzero;"/>
        </g>
        <g transform="matrix(1,0,0,1,0.7218,111.094)">
            <path d="M0,34.765L38.749,53.906L38.829,53.906L38.829,0.017L0,-19.141L0,34.765Z" style="fill:rgb(237,69,97);fill-rule:nonzero;"/>
        </g>
        <g transform="matrix(1,0,0,1,39.5505,145.842)">
            <path d="M0,-34.731L0,19.158L0.08,19.158L38.83,0.017L38.83,-53.889L0,-34.731Z" style="fill:rgb(138,32,53);fill-rule:nonzero;"/>
        </g>
        <g transform="matrix(-0.896564,0.442914,0.442914,0.896564,82.3964,109.15)">
            <path d="M-73.642,17.198L-30.333,17.198L-4.016,-17.198L-47.325,-17.198L-73.642,17.198Z" style="fill:rgb(151,151,151);fill-rule:nonzero;"/>
        </g>
        <g transform="matrix(1,0,0,1,78.3801,111.094)">
            <path d="M0,34.765L38.749,53.906L38.829,53.906L38.829,0.017L0,-19.141L0,34.765Z" style="fill:rgb(201,205,206);fill-rule:nonzero;"/>
        </g>
        <g transform="matrix(1,0,0,1,117.209,145.842)">
            <path d="M0,-34.731L0,19.158L0.08,19.158L38.83,0.017L38.83,-53.889L0,-34.731Z" style="fill:rgb(119,125,128);fill-rule:nonzero;"/>
        </g>
    </g>
</svg>
